<svg width="133" height="26" viewBox="0 0 133 26" fill="none" xmlns="http://www.w3.org/2000/svg">
<path d="M2.736 25.192C1.968 25.192 1.36 24.968 0.912 24.52C0.464 24.072 0.24 23.464 0.24 22.696V4.744C0.24 3.99733 0.464 3.4 0.912 2.952C1.36 2.504 1.968 2.28 2.736 2.28C3.504 2.28 4.112 2.504 4.56 2.952C5.008 3.4 5.232 3.99733 5.232 4.744V22.696C5.232 23.464 5.008 24.072 4.56 24.52C4.112 24.968 3.504 25.192 2.736 25.192ZM19.1808 8.904C21.0581 8.904 22.4554 9.45867 23.3728 10.568C24.2901 11.656 24.7488 13.3093 24.7488 15.528V22.92C24.7488 23.624 24.5248 24.1787 24.0768 24.584C23.6501 24.9893 23.0634 25.192 22.3168 25.192C21.5701 25.192 20.9834 24.9893 20.5568 24.584C20.1301 24.1787 19.9168 23.624 19.9168 22.92V15.752C19.9168 14.6853 19.7141 13.9067 19.3088 13.416C18.9248 12.9253 18.3168 12.68 17.4848 12.68C16.4821 12.68 15.6714 13 15.0528 13.64C14.4554 14.28 14.1568 15.1333 14.1568 16.2V22.92C14.1568 23.624 13.9434 24.1787 13.5168 24.584C13.0901 24.9893 12.5034 25.192 11.7568 25.192C11.0101 25.192 10.4128 24.9893 9.96475 24.584C9.53808 24.1787 9.32475 23.624 9.32475 22.92V11.176C9.32475 10.5147 9.54875 9.98133 9.99675 9.576C10.4661 9.17067 11.0634 8.968 11.7888 8.968C12.4501 8.968 12.9834 9.17067 13.3888 9.576C13.8154 9.96 14.0288 10.4613 14.0288 11.08V11.528C14.5834 10.6747 15.2981 10.024 16.1728 9.576C17.0688 9.128 18.0714 8.904 19.1808 8.904ZM36.9 5.96C36.0253 6.024 35.396 6.29067 35.012 6.76C34.628 7.22933 34.436 7.89067 34.436 8.744V9.288H36.676C38.1267 9.288 38.852 9.896 38.852 11.112C38.852 12.3067 38.1267 12.904 36.676 12.904H34.436V22.888C34.436 23.6347 34.2013 24.2 33.732 24.584C33.284 24.968 32.7187 25.16 32.036 25.16C31.332 25.16 30.7453 24.968 30.276 24.584C29.828 24.2 29.604 23.6347 29.604 22.888V12.904H28.324C26.8947 12.904 26.18 12.3067 26.18 11.112C26.18 9.896 26.8947 9.288 28.324 9.288H29.604C29.604 7.24 30.1693 5.62933 31.3 4.456C32.4307 3.28267 33.988 2.62133 35.972 2.472L36.804 2.408L37.38 2.376C38.852 2.376 39.588 2.94133 39.588 4.072C39.588 5.18133 38.9693 5.78933 37.732 5.896L36.9 5.96ZM47.783 25.256C46.119 25.256 44.6577 24.9253 43.399 24.264C42.1403 23.5813 41.1697 22.632 40.487 21.416C39.8043 20.1787 39.463 18.728 39.463 17.064C39.463 15.4 39.8043 13.96 40.487 12.744C41.1697 11.5067 42.1403 10.5573 43.399 9.896C44.6577 9.23467 46.119 8.904 47.783 8.904C49.447 8.904 50.9083 9.23467 52.167 9.896C53.4257 10.5573 54.3963 11.5067 55.079 12.744C55.7617 13.96 56.103 15.4 56.103 17.064C56.103 18.728 55.7617 20.1787 55.079 21.416C54.3963 22.632 53.4257 23.5813 52.167 24.264C50.9083 24.9253 49.447 25.256 47.783 25.256ZM47.783 21.576C50.1297 21.576 51.303 20.072 51.303 17.064C51.303 15.5493 50.9937 14.4187 50.375 13.672C49.7777 12.9253 48.9137 12.552 47.783 12.552C45.4363 12.552 44.263 14.056 44.263 17.064C44.263 20.072 45.4363 21.576 47.783 21.576ZM68.4195 8.968C69.0595 8.92533 69.5608 9.07467 69.9235 9.416C70.3075 9.736 70.4995 10.2267 70.4995 10.888C70.4995 11.592 70.3288 12.1147 69.9875 12.456C69.6462 12.7973 69.0382 13.0107 68.1635 13.096L67.2035 13.192C66.0302 13.32 65.1768 13.704 64.6435 14.344C64.1315 14.984 63.8755 15.8053 63.8755 16.808V22.92C63.8755 23.6667 63.6408 24.232 63.1715 24.616C62.7235 25 62.1582 25.192 61.4755 25.192C60.7715 25.192 60.1848 25 59.7155 24.616C59.2675 24.232 59.0435 23.6667 59.0435 22.92V11.176C59.0435 10.472 59.2782 9.928 59.7475 9.544C60.2168 9.16 60.7822 8.968 61.4435 8.968C62.0835 8.968 62.6168 9.16 63.0435 9.544C63.4702 9.90667 63.6835 10.4187 63.6835 11.08V11.944C64.0675 11.0267 64.6435 10.3227 65.4115 9.832C66.2008 9.34133 67.0542 9.064 67.9715 9L68.4195 8.968ZM91.2473 8.904C92.9539 8.904 94.2659 9.42667 95.1833 10.472C96.1006 11.496 96.5593 13.1813 96.5593 15.528V22.92C96.5593 23.6667 96.3353 24.232 95.8873 24.616C95.4393 25 94.8633 25.192 94.1593 25.192C93.4766 25.192 92.9006 25 92.4313 24.616C91.9619 24.232 91.7273 23.6667 91.7273 22.92V15.464C91.7273 14.44 91.5459 13.7253 91.1833 13.32C90.8419 12.8933 90.3086 12.68 89.5833 12.68C88.6873 12.68 87.9726 12.9893 87.4393 13.608C86.9059 14.2267 86.6393 15.0907 86.6393 16.2V22.92C86.6393 23.6667 86.4153 24.232 85.9673 24.616C85.5193 25 84.9433 25.192 84.2393 25.192C83.5566 25.192 82.9806 25 82.5113 24.616C82.0419 24.232 81.8073 23.6667 81.8073 22.92V15.464C81.8073 14.44 81.6259 13.7253 81.2633 13.32C80.9219 12.8933 80.3886 12.68 79.6633 12.68C78.7673 12.68 78.0526 12.9893 77.5193 13.608C76.9859 14.2267 76.7193 15.0907 76.7193 16.2V22.92C76.7193 23.6667 76.4846 24.232 76.0153 24.616C75.5673 25 75.0019 25.192 74.3193 25.192C73.6366 25.192 73.0606 25 72.5913 24.616C72.1219 24.232 71.8873 23.6667 71.8873 22.92V11.176C71.8873 10.472 72.1219 9.928 72.5913 9.544C73.0819 9.16 73.6686 8.968 74.3513 8.968C74.9913 8.968 75.5246 9.16 75.9513 9.544C76.3779 9.90667 76.5913 10.4187 76.5913 11.08V11.4C77.1033 10.5893 77.7646 9.97067 78.5753 9.544C79.4073 9.11733 80.3459 8.904 81.3913 8.904C82.5219 8.904 83.4713 9.13867 84.2393 9.608C85.0286 10.056 85.6366 10.792 86.0633 11.816C86.5539 10.92 87.2473 10.216 88.1433 9.704C89.0606 9.17067 90.0953 8.904 91.2473 8.904ZM121.608 21.96C121.778 22.344 121.864 22.6853 121.864 22.984C121.864 23.5813 121.618 24.0933 121.128 24.52C120.658 24.9253 120.114 25.128 119.496 25.128C119.09 25.128 118.706 25.0213 118.344 24.808C117.981 24.5733 117.704 24.232 117.512 23.784L115.816 20.008H104.968L103.272 23.784C103.08 24.232 102.802 24.5733 102.44 24.808C102.098 25.0213 101.714 25.128 101.288 25.128C100.669 25.128 100.114 24.9253 99.6238 24.52C99.1331 24.0933 98.8878 23.5813 98.8878 22.984C98.8878 22.6853 98.9731 22.344 99.1438 21.96L107.784 3.816C108.018 3.304 108.37 2.92 108.84 2.664C109.309 2.38667 109.81 2.248 110.344 2.248C110.898 2.248 111.41 2.38667 111.88 2.664C112.349 2.94133 112.712 3.32533 112.968 3.816L121.608 21.96ZM106.664 16.232H114.12L110.408 7.912L106.664 16.232ZM126.663 25.192C125.959 25.192 125.372 25 124.903 24.616C124.455 24.232 124.231 23.6667 124.231 22.92V11.24C124.231 10.4933 124.466 9.928 124.935 9.544C125.404 9.16 125.98 8.968 126.663 8.968C127.346 8.968 127.911 9.16 128.359 9.544C128.828 9.928 129.063 10.4933 129.063 11.24V22.92C129.063 23.6667 128.828 24.232 128.359 24.616C127.911 25 127.346 25.192 126.663 25.192ZM127.591 7.112C127.335 7.304 127.058 7.4 126.759 7.4C126.418 7.4 126.13 7.28267 125.895 7.048C125.66 6.81333 125.543 6.536 125.543 6.216C125.543 5.93867 125.639 5.66133 125.831 5.384L128.583 1.704C129.116 0.978666 129.756 0.615999 130.503 0.615999C131.036 0.615999 131.506 0.807999 131.911 1.192C132.316 1.576 132.519 2.024 132.519 2.536C132.519 3.176 132.178 3.752 131.495 4.264L127.591 7.112Z" fill="white"/>
</svg>
