<svg width="319" height="59" viewBox="0 0 319 59" fill="none" xmlns="http://www.w3.org/2000/svg">
<path d="M58.472 51.384C56.936 51.384 55.72 50.936 54.824 50.04C53.928 49.144 53.48 47.928 53.48 46.392V10.488C53.48 8.99466 53.928 7.8 54.824 6.904C55.72 6.008 56.936 5.56 58.472 5.56C60.008 5.56 61.224 6.008 62.12 6.904C63.016 7.8 63.464 8.99466 63.464 10.488V46.392C63.464 47.928 63.016 49.144 62.12 50.04C61.224 50.936 60.008 51.384 58.472 51.384ZM91.3615 18.808C95.1162 18.808 97.9108 19.9173 99.7455 22.136C101.58 24.312 102.498 27.6187 102.498 32.056V46.84C102.498 48.248 102.05 49.3573 101.154 50.168C100.3 50.9787 99.1268 51.384 97.6335 51.384C96.1402 51.384 94.9668 50.9787 94.1135 50.168C93.2602 49.3573 92.8335 48.248 92.8335 46.84V32.504C92.8335 30.3707 92.4282 28.8133 91.6175 27.832C90.8495 26.8507 89.6335 26.36 87.9695 26.36C85.9642 26.36 84.3428 27 83.1055 28.28C81.9108 29.56 81.3135 31.2667 81.3135 33.4V46.84C81.3135 48.248 80.8868 49.3573 80.0335 50.168C79.1802 50.9787 78.0068 51.384 76.5135 51.384C75.0202 51.384 73.8255 50.9787 72.9295 50.168C72.0762 49.3573 71.6495 48.248 71.6495 46.84V23.352C71.6495 22.0293 72.0975 20.9627 72.9935 20.152C73.9322 19.3413 75.1268 18.936 76.5775 18.936C77.9002 18.936 78.9668 19.3413 79.7775 20.152C80.6308 20.92 81.0575 21.9227 81.0575 23.16V24.056C82.1668 22.3493 83.5962 21.048 85.3455 20.152C87.1375 19.256 89.1428 18.808 91.3615 18.808ZM126.8 12.92C125.051 13.048 123.792 13.5813 123.024 14.52C122.256 15.4587 121.872 16.7813 121.872 18.488V19.576H126.352C129.253 19.576 130.704 20.792 130.704 23.224C130.704 25.6133 129.253 26.808 126.352 26.808H121.872V46.776C121.872 48.2693 121.403 49.4 120.464 50.168C119.568 50.936 118.437 51.32 117.072 51.32C115.664 51.32 114.491 50.936 113.552 50.168C112.656 49.4 112.208 48.2693 112.208 46.776V26.808H109.648C106.789 26.808 105.36 25.6133 105.36 23.224C105.36 20.792 106.789 19.576 109.648 19.576H112.208C112.208 15.48 113.339 12.2587 115.6 9.912C117.861 7.56533 120.976 6.24266 124.944 5.944L126.608 5.816L127.76 5.752C130.704 5.752 132.176 6.88266 132.176 9.144C132.176 11.3627 130.939 12.5787 128.464 12.792L126.8 12.92ZM148.566 51.512C145.238 51.512 142.315 50.8507 139.798 49.528C137.281 48.1627 135.339 46.264 133.974 43.832C132.609 41.3573 131.926 38.456 131.926 35.128C131.926 31.8 132.609 28.92 133.974 26.488C135.339 24.0133 137.281 22.1147 139.798 20.792C142.315 19.4693 145.238 18.808 148.566 18.808C151.894 18.808 154.817 19.4693 157.334 20.792C159.851 22.1147 161.793 24.0133 163.158 26.488C164.523 28.92 165.206 31.8 165.206 35.128C165.206 38.456 164.523 41.3573 163.158 43.832C161.793 46.264 159.851 48.1627 157.334 49.528C154.817 50.8507 151.894 51.512 148.566 51.512ZM148.566 44.152C153.259 44.152 155.606 41.144 155.606 35.128C155.606 32.0987 154.987 29.8373 153.75 28.344C152.555 26.8507 150.827 26.104 148.566 26.104C143.873 26.104 141.526 29.112 141.526 35.128C141.526 41.144 143.873 44.152 148.566 44.152ZM189.839 18.936C191.119 18.8507 192.122 19.1493 192.847 19.832C193.615 20.472 193.999 21.4533 193.999 22.776C193.999 24.184 193.658 25.2293 192.975 25.912C192.292 26.5947 191.076 27.0213 189.327 27.192L187.407 27.384C185.06 27.64 183.354 28.408 182.287 29.688C181.263 30.968 180.751 32.6107 180.751 34.616V46.84C180.751 48.3333 180.282 49.464 179.343 50.232C178.447 51 177.316 51.384 175.951 51.384C174.543 51.384 173.37 51 172.431 50.232C171.535 49.464 171.087 48.3333 171.087 46.84V23.352C171.087 21.944 171.556 20.856 172.495 20.088C173.434 19.32 174.564 18.936 175.887 18.936C177.167 18.936 178.234 19.32 179.087 20.088C179.94 20.8133 180.367 21.8373 180.367 23.16V24.888C181.135 23.0533 182.287 21.6453 183.823 20.664C185.402 19.6827 187.108 19.128 188.943 19L189.839 18.936ZM235.495 18.808C238.908 18.808 241.532 19.8533 243.367 21.944C245.201 23.992 246.119 27.3627 246.119 32.056V46.84C246.119 48.3333 245.671 49.464 244.775 50.232C243.879 51 242.727 51.384 241.319 51.384C239.953 51.384 238.801 51 237.863 50.232C236.924 49.464 236.455 48.3333 236.455 46.84V31.928C236.455 29.88 236.092 28.4507 235.367 27.64C234.684 26.7867 233.617 26.36 232.167 26.36C230.375 26.36 228.945 26.9787 227.879 28.216C226.812 29.4533 226.279 31.1813 226.279 33.4V46.84C226.279 48.3333 225.831 49.464 224.935 50.232C224.039 51 222.887 51.384 221.479 51.384C220.113 51.384 218.961 51 218.023 50.232C217.084 49.464 216.615 48.3333 216.615 46.84V31.928C216.615 29.88 216.252 28.4507 215.527 27.64C214.844 26.7867 213.777 26.36 212.327 26.36C210.535 26.36 209.105 26.9787 208.039 28.216C206.972 29.4533 206.439 31.1813 206.439 33.4V46.84C206.439 48.3333 205.969 49.464 205.031 50.232C204.135 51 203.004 51.384 201.639 51.384C200.273 51.384 199.121 51 198.183 50.232C197.244 49.464 196.775 48.3333 196.775 46.84V23.352C196.775 21.944 197.244 20.856 198.183 20.088C199.164 19.32 200.337 18.936 201.703 18.936C202.983 18.936 204.049 19.32 204.903 20.088C205.756 20.8133 206.183 21.8373 206.183 23.16V23.8C207.207 22.1787 208.529 20.9413 210.151 20.088C211.815 19.2347 213.692 18.808 215.783 18.808C218.044 18.808 219.943 19.2773 221.479 20.216C223.057 21.112 224.273 22.584 225.127 24.632C226.108 22.84 227.495 21.432 229.287 20.408C231.121 19.3413 233.191 18.808 235.495 18.808ZM296.216 44.92C296.557 45.688 296.728 46.3707 296.728 46.968C296.728 48.1627 296.237 49.1867 295.256 50.04C294.317 50.8507 293.229 51.256 291.992 51.256C291.181 51.256 290.413 51.0427 289.688 50.616C288.962 50.1467 288.408 49.464 288.024 48.568L284.632 41.016H262.936L259.544 48.568C259.16 49.464 258.605 50.1467 257.88 50.616C257.197 51.0427 256.429 51.256 255.576 51.256C254.338 51.256 253.229 50.8507 252.248 50.04C251.266 49.1867 250.776 48.1627 250.776 46.968C250.776 46.3707 250.946 45.688 251.288 44.92L268.568 8.632C269.037 7.608 269.741 6.84 270.68 6.328C271.618 5.77333 272.621 5.496 273.688 5.496C274.797 5.496 275.821 5.77333 276.76 6.328C277.698 6.88266 278.424 7.65066 278.936 8.632L296.216 44.92ZM266.328 33.464H281.24L273.816 16.824L266.328 33.464ZM306.326 51.384C304.918 51.384 303.745 51 302.806 50.232C301.91 49.464 301.462 48.3333 301.462 46.84V23.48C301.462 21.9867 301.931 20.856 302.87 20.088C303.809 19.32 304.961 18.936 306.326 18.936C307.691 18.936 308.822 19.32 309.718 20.088C310.657 20.856 311.126 21.9867 311.126 23.48V46.84C311.126 48.3333 310.657 49.464 309.718 50.232C308.822 51 307.691 51.384 306.326 51.384ZM308.182 15.224C307.67 15.608 307.115 15.8 306.518 15.8C305.835 15.8 305.259 15.5653 304.79 15.096C304.321 14.6267 304.086 14.072 304.086 13.432C304.086 12.8773 304.278 12.3227 304.662 11.768L310.166 4.408C311.233 2.95733 312.513 2.232 314.006 2.232C315.073 2.232 316.011 2.616 316.822 3.384C317.633 4.152 318.038 5.048 318.038 6.072C318.038 7.352 317.355 8.504 315.99 9.528L308.182 15.224Z" fill="white"/>
<path d="M14.4445 50.6676L21.9054 59L29.4973 50.6676C38.2672 39.5576 47.0371 26.9928 42.9794 15.4861C38.9217 3.97943 28.1883 -0.252922 21.9054 0.0116004C15.6225 0.276123 6.61368 2 0.96237 15.4861C-3.43074 25.9697 8.29244 43.2609 14.4445 50.6676Z" fill="#D93429"/>
<path d="M22.2014 29.556C21.9614 29.556 21.7574 29.472 21.5894 29.304C21.4214 29.112 21.3254 28.86 21.3014 28.548L20.4374 12.24C20.3894 11.688 20.5334 11.256 20.8694 10.944C21.2054 10.608 21.6494 10.44 22.2014 10.44C22.7534 10.44 23.1974 10.608 23.5334 10.944C23.8694 11.256 24.0134 11.688 23.9654 12.24L23.1014 28.548C23.0774 28.884 22.9814 29.136 22.8134 29.304C22.6454 29.472 22.4414 29.556 22.2014 29.556ZM22.2374 36.18C21.6614 36.18 21.1814 36 20.7974 35.64C20.4134 35.256 20.2214 34.764 20.2214 34.164C20.2214 33.564 20.4134 33.072 20.7974 32.688C21.1814 32.304 21.6614 32.112 22.2374 32.112C22.7894 32.112 23.2454 32.304 23.6054 32.688C23.9894 33.072 24.1814 33.564 24.1814 34.164C24.1814 34.764 23.9894 35.256 23.6054 35.64C23.2454 36 22.7894 36.18 22.2374 36.18Z" fill="white"/>
</svg>
